# xmcd CD database file
#
# Track frame offsets:
#	150
#	12750
#	25031
#	43577
#	61592
#	84194
#	102609
#	114950
#	130233
#	144207
#	182214
#
# Disc length: 2632 seconds
#
# Revision: 0
# Processed by: cddbd v1.5.1PL2 Copyright (c) Steve Scherf et al.
# Submitted via: Feurio! 1.68 - http://www.feurio.com
#
DISCID=7f0a460b
DTITLE=Paul F. Cowlan - Living The Life
DYEAR=1900
DGENRE=Blues
TTITLE0=Spanish Ladies
TTITLE1=Bella Donna
TTITLE2=Chicken Blues
TTITLE3=Mr. Worlslywiseman
TTITLE4=Fish Fight South Of The Pecos
TTITLE5=W. C. Disco
TTITLE6=Southern Blues
TTITLE7=Maxie's Urlaub
TTITLE8=A Second Travelling Song
TTITLE9=His Story Of The Blues
TTITLE10=Strangers Smiles
EXTD=
EXTT0=
EXTT1=
EXTT2=
EXTT3=
EXTT4=
EXTT5=
EXTT6=
EXTT7=
EXTT8=
EXTT9=
EXTT10=
PLAYORDER=
